<svg id="visual" viewBox="0 0 2000 300" width="2000" height="300" xmlns="http://www.w3.org/2000/svg" xmlns:xlink="http://www.w3.org/1999/xlink" version="1.1"><path d="M0 148L47.7 139.2C95.3 130.3 190.7 112.7 285.8 123C381 133.3 476 171.7 571.2 191.8C666.3 212 761.7 214 857 209.7C952.3 205.3 1047.7 194.7 1143 174.7C1238.3 154.7 1333.7 125.3 1428.8 110.3C1524 95.3 1619 94.7 1714.2 108.2C1809.3 121.7 1904.7 149.3 1952.3 163.2L2000 177L2000 301L1952.3 301C1904.7 301 1809.3 301 1714.2 301C1619 301 1524 301 1428.8 301C1333.7 301 1238.3 301 1143 301C1047.7 301 952.3 301 857 301C761.7 301 666.3 301 571.2 301C476 301 381 301 285.8 301C190.7 301 95.3 301 47.7 301L0 301Z" fill="#FFFFFF" stroke-linecap="round" stroke-linejoin="miter"></path></svg>