<svg id="visual" viewBox="0 0 900 200" width="900" height="200" xmlns="http://www.w3.org/2000/svg" xmlns:xlink="http://www.w3.org/1999/xlink" version="1.1"><path d="M0 87L21.5 91.3C43 95.7 86 104.3 128.8 98.2C171.7 92 214.3 71 257.2 68.8C300 66.7 343 83.3 385.8 99.3C428.7 115.3 471.3 130.7 514.2 125.7C557 120.7 600 95.3 642.8 80.7C685.7 66 728.3 62 771.2 74C814 86 857 114 878.5 128L900 142L900 201L878.5 201C857 201 814 201 771.2 201C728.3 201 685.7 201 642.8 201C600 201 557 201 514.2 201C471.3 201 428.7 201 385.8 201C343 201 300 201 257.2 201C214.3 201 171.7 201 128.8 201C86 201 43 201 21.5 201L0 201Z" fill="#b0b017" stroke-linecap="round" stroke-linejoin="miter"></path></svg>