<svg id="visual" viewBox="0 0 1300 300" width="1300" height="300" xmlns="http://www.w3.org/2000/svg" xmlns:xlink="http://www.w3.org/1999/xlink" version="1.1"><path d="M0 131L31 137.5C62 144 124 157 185.8 147.8C247.7 138.7 309.3 107.3 371.2 104.2C433 101 495 126 557 150C619 174 681 197 743 189.3C805 181.7 867 143.3 928.8 121.2C990.7 99 1052.3 93 1114.2 111C1176 129 1238 171 1269 192L1300 213L1300 301L1269 301C1238 301 1176 301 1114.2 301C1052.3 301 990.7 301 928.8 301C867 301 805 301 743 301C681 301 619 301 557 301C495 301 433 301 371.2 301C309.3 301 247.7 301 185.8 301C124 301 62 301 31 301L0 301Z" fill="#b0b017" stroke-linecap="round" stroke-linejoin="miter"></path></svg>